<mxfile host="Electron" modified="2024-10-30T22:57:12.025Z" agent="Mozilla/5.0 (Windows NT 10.0; Win64; x64) AppleWebKit/537.36 (KHTML, like Gecko) draw.io/24.2.5 Chrome/120.0.6099.109 Electron/28.1.0 Safari/537.36" etag="RfxLMfJ6edsU24vTsO8s" version="24.2.5" type="device">
  <diagram name="Page-1" id="uB5x0AnrmPDYNDho8oOX">
    <mxGraphModel dx="757" dy="681" grid="1" gridSize="10" guides="1" tooltips="1" connect="1" arrows="1" fold="1" page="1" pageScale="1" pageWidth="850" pageHeight="1100" math="0" shadow="0">
      <root>
        <mxCell id="0" />
        <mxCell id="1" parent="0" />
        <mxCell id="mJ-FZISdq58O2l2SJjNl-2" value="" style="shape=tape;whiteSpace=wrap;html=1;strokeWidth=2;size=0.19" vertex="1" parent="1">
          <mxGeometry x="60" y="35" width="100" height="65" as="geometry" />
        </mxCell>
        <mxCell id="mJ-FZISdq58O2l2SJjNl-3" value="" style="shape=tape;whiteSpace=wrap;html=1;strokeWidth=2;size=0.19" vertex="1" parent="1">
          <mxGeometry x="640" y="34.5" width="100" height="65" as="geometry" />
        </mxCell>
        <mxCell id="mJ-FZISdq58O2l2SJjNl-4" value="" style="rounded=0;whiteSpace=wrap;html=1;strokeWidth=2;" vertex="1" parent="1">
          <mxGeometry x="160" y="40.5" width="80" height="54" as="geometry" />
        </mxCell>
        <mxCell id="mJ-FZISdq58O2l2SJjNl-5" value="" style="rounded=0;whiteSpace=wrap;html=1;strokeWidth=2;" vertex="1" parent="1">
          <mxGeometry x="240" y="40.5" width="80" height="54" as="geometry" />
        </mxCell>
        <mxCell id="mJ-FZISdq58O2l2SJjNl-7" value="" style="rounded=0;whiteSpace=wrap;html=1;strokeWidth=2;" vertex="1" parent="1">
          <mxGeometry x="320" y="40.5" width="80" height="54" as="geometry" />
        </mxCell>
        <mxCell id="mJ-FZISdq58O2l2SJjNl-8" value="" style="rounded=0;whiteSpace=wrap;html=1;strokeWidth=2;" vertex="1" parent="1">
          <mxGeometry x="480" y="40.5" width="80" height="54" as="geometry" />
        </mxCell>
        <mxCell id="mJ-FZISdq58O2l2SJjNl-9" value="" style="rounded=0;whiteSpace=wrap;html=1;strokeWidth=2;" vertex="1" parent="1">
          <mxGeometry x="400" y="40.5" width="80" height="54" as="geometry" />
        </mxCell>
        <mxCell id="mJ-FZISdq58O2l2SJjNl-11" value="" style="rounded=0;whiteSpace=wrap;html=1;strokeWidth=2;" vertex="1" parent="1">
          <mxGeometry x="560" y="40.5" width="80" height="54" as="geometry" />
        </mxCell>
        <mxCell id="mJ-FZISdq58O2l2SJjNl-12" value="" style="shape=flexArrow;endArrow=classic;html=1;rounded=0;" edge="1" parent="1">
          <mxGeometry width="50" height="50" relative="1" as="geometry">
            <mxPoint x="360" y="200" as="sourcePoint" />
            <mxPoint x="360" y="100" as="targetPoint" />
          </mxGeometry>
        </mxCell>
        <mxCell id="mJ-FZISdq58O2l2SJjNl-13" value="" style="triangle;whiteSpace=wrap;html=1;" vertex="1" parent="1">
          <mxGeometry x="330" y="190" width="60" height="80" as="geometry" />
        </mxCell>
        <mxCell id="mJ-FZISdq58O2l2SJjNl-14" value="Cell = State Machine" style="text;strokeColor=none;fillColor=none;html=1;fontSize=24;fontStyle=1;verticalAlign=middle;align=center;" vertex="1" parent="1">
          <mxGeometry x="350" y="0.5" width="100" height="40" as="geometry" />
        </mxCell>
        <mxCell id="mJ-FZISdq58O2l2SJjNl-15" value="Read/Write Head = State Machine" style="text;strokeColor=none;fillColor=none;html=1;fontSize=24;fontStyle=1;verticalAlign=middle;align=center;" vertex="1" parent="1">
          <mxGeometry x="310" y="270" width="100" height="40" as="geometry" />
        </mxCell>
        <mxCell id="mJ-FZISdq58O2l2SJjNl-16" value="C&lt;sub&gt;0&lt;/sub&gt;" style="text;html=1;align=center;verticalAlign=middle;whiteSpace=wrap;rounded=0;" vertex="1" parent="1">
          <mxGeometry x="250" y="52" width="60" height="30" as="geometry" />
        </mxCell>
        <mxCell id="mJ-FZISdq58O2l2SJjNl-17" value="C&lt;span style=&quot;font-size: 10px;&quot;&gt;n&lt;/span&gt;" style="text;html=1;align=center;verticalAlign=middle;whiteSpace=wrap;rounded=0;" vertex="1" parent="1">
          <mxGeometry x="490" y="52.5" width="60" height="30" as="geometry" />
        </mxCell>
        <mxCell id="mJ-FZISdq58O2l2SJjNl-19" value="..." style="text;html=1;align=center;verticalAlign=middle;whiteSpace=wrap;rounded=0;" vertex="1" parent="1">
          <mxGeometry x="410" y="52.5" width="60" height="30" as="geometry" />
        </mxCell>
        <mxCell id="mJ-FZISdq58O2l2SJjNl-20" value="C&lt;span style=&quot;font-size: 10px;&quot;&gt;&lt;sub&gt;1&lt;/sub&gt;&lt;/span&gt;" style="text;html=1;align=center;verticalAlign=middle;whiteSpace=wrap;rounded=0;" vertex="1" parent="1">
          <mxGeometry x="330" y="52.5" width="60" height="30" as="geometry" />
        </mxCell>
      </root>
    </mxGraphModel>
  </diagram>
</mxfile>
